{"glyphs":{":":{"x_min":0,"x_max":252,"ha":252,"o":"m 67 445 q 67 470 84 487 q 101 504 126 504 q 150 504 168 487 q 185 469 185 445 q 185 421 167 404 q 150 386 126 386 q 102 386 84 404 q 67 421 67 445 z m 67 48 q 67 73 84 90 q 101 108 126 108 q 150 108 167 90 q 185 73 185 48 q 185 24 167 6 q 150 -11 126 -11 q 102 -11 84 6 q 67 24 67 48 z"},"$":{"x_min":0,"x_max":505,"ha":505,"o":"m 228 419 l 228 668 q 164 663 128 630 q 92 598 92 545 q 92 498 124 468 q 157 438 228 419 z m 256 27 q 325 32 364 70 q 403 108 403 171 q 403 225 368 257 q 334 290 256 308 z m 228 -77 l 228 0 q 141 7 85 51 q 30 95 30 156 q 30 191 46 211 q 62 231 90 231 q 110 231 124 215 q 138 199 138 175 q 138 153 123 132 q 108 111 108 103 q 108 78 142 56 q 177 35 228 30 l 228 316 q 125 345 75 392 q 25 439 25 509 q 25 585 81 637 q 136 688 228 696 l 228 752 l 256 752 l 256 696 q 343 689 394 651 q 446 612 446 557 q 446 529 431 513 q 416 496 392 496 q 369 496 354 512 q 340 529 340 555 q 340 572 350 592 q 360 612 360 615 q 360 635 330 651 q 300 667 256 668 l 256 412 q 374 380 429 330 q 484 280 484 205 q 484 122 420 64 q 356 6 256 0 l 256 -77 z"},"?":{"x_min":0,"x_max":465,"ha":465,"o":"m 119 48 q 119 73 136 90 q 154 108 179 108 q 203 108 220 90 q 238 73 238 48 q 238 24 220 6 q 203 -11 179 -11 q 154 -11 137 6 q 119 24 119 48 z m 159 182 q 159 186 159 194 q 158 202 158 205 q 158 248 170 279 q 182 310 208 334 q 223 347 247 365 q 271 383 278 390 q 301 415 311 443 q 321 471 321 519 q 321 604 289 646 q 257 688 194 688 q 150 688 120 667 q 89 646 89 619 q 89 609 93 603 q 97 597 112 587 q 140 569 147 557 q 155 545 155 528 q 155 511 140 497 q 125 484 105 484 q 75 484 54 510 q 33 535 33 574 q 33 633 84 675 q 135 718 208 718 q 306 718 364 666 q 422 613 422 524 q 422 483 408 449 q 394 415 365 387 q 338 361 278 327 q 255 314 245 308 q 217 292 203 260 q 189 228 189 182 z"},"<":{"x_min":0,"x_max":833,"ha":833,"o":"m 704 566 l 704 491 l 231 298 l 704 106 l 704 31 l 129 267 l 129 330 z"},"'":{"x_min":0,"x_max":172,"ha":172,"o":"m 95 420 l 78 420 l 44 644 q 44 645 43 648 q 42 658 42 662 q 42 687 53 700 q 65 714 86 714 q 106 714 118 701 q 130 688 130 664 q 130 661 130 657 q 129 653 128 644 z"},"=":{"x_min":0,"x_max":833,"ha":833,"o":"m 124 235 l 709 235 l 709 167 l 124 167 z m 124 429 l 709 429 l 709 361 l 124 361 z"},"a":{"x_min":0,"x_max":537,"ha":537,"o":"m 338 296 q 317 286 280 269 q 141 204 141 126 q 141 83 161 59 q 181 35 215 35 q 255 35 289 66 q 322 97 338 149 z m 337 82 q 309 38 268 15 q 226 -9 176 -9 q 116 -9 78 28 q 40 65 40 123 q 40 177 76 211 q 113 245 201 271 q 246 285 279 298 q 312 312 338 328 l 338 361 q 338 426 315 451 q 292 476 235 476 q 193 476 165 463 q 137 449 137 430 q 137 417 166 400 q 194 382 194 356 q 194 334 177 319 q 159 303 134 303 q 104 303 85 324 q 66 344 66 378 q 66 435 118 469 q 170 504 257 504 q 350 504 389 466 q 428 428 428 335 l 428 103 q 428 62 436 49 q 444 35 464 35 q 483 35 492 49 q 501 63 501 94 l 501 147 l 529 147 l 529 98 q 529 44 504 18 q 480 -9 431 -9 q 391 -9 367 14 q 344 36 337 82 z"},"L":{"x_min":0,"x_max":602,"ha":602,"o":"m 342 30 q 430 30 478 87 q 526 144 541 266 l 567 266 l 561 0 l 18 0 l 18 30 l 57 30 q 92 30 104 43 q 115 56 115 100 l 115 604 q 115 649 104 661 q 92 674 57 674 l 18 674 l 18 701 l 305 701 l 305 674 l 265 674 q 230 674 219 661 q 207 648 207 604 l 207 138 q 207 63 226 47 q 244 30 309 30 z"},"3":{"x_min":0,"x_max":505,"ha":505,"o":"m 301 385 q 377 365 419 317 q 461 268 461 200 q 461 113 396 52 q 330 -9 234 -9 q 150 -9 91 40 q 31 88 31 154 q 31 192 50 216 q 70 240 100 240 q 125 240 143 221 q 161 202 161 174 q 161 150 141 121 q 120 92 120 81 q 120 57 150 39 q 180 21 223 21 q 292 21 324 65 q 356 109 356 203 q 356 292 326 331 q 296 371 230 371 q 208 371 179 365 q 150 358 143 358 q 131 358 125 363 q 118 368 118 377 q 118 387 127 393 q 137 399 153 399 q 164 399 188 397 q 213 395 227 395 q 286 395 312 429 q 339 463 339 540 q 339 607 310 643 q 281 678 225 678 q 184 678 156 663 q 127 647 127 628 q 127 615 153 594 q 179 573 179 543 q 179 522 162 506 q 145 490 121 490 q 92 490 71 513 q 50 537 50 569 q 50 627 105 667 q 160 706 242 706 q 327 706 382 659 q 438 612 438 542 q 438 488 402 447 q 366 406 301 385 z"},";":{"x_min":0,"x_max":252,"ha":252,"o":"m 67 445 q 67 470 84 487 q 101 504 126 504 q 150 504 168 487 q 185 469 185 445 q 185 421 167 404 q 150 386 126 386 q 102 386 84 404 q 67 421 67 445 z m 79 -147 q 110 -108 128 -74 q 146 -39 146 -19 q 146 -10 143 -7 q 139 -4 130 -4 q 127 -4 122 -4 q 116 -5 114 -5 q 94 -5 78 11 q 63 28 63 50 q 63 74 81 92 q 98 110 121 110 q 153 110 174 84 q 195 59 195 18 q 195 -17 173 -60 q 150 -103 101 -162 z"},"J":{"x_min":0,"x_max":493,"ha":493,"o":"m 297 208 l 297 604 q 297 649 286 661 q 274 674 239 674 l 199 674 l 199 701 l 486 701 l 486 674 l 447 674 q 412 674 401 661 q 389 648 389 604 l 389 206 q 389 155 382 121 q 375 87 359 63 q 335 27 293 5 q 250 -16 202 -16 q 116 -16 62 30 q 7 77 7 147 q 7 193 32 223 q 58 254 95 254 q 125 254 144 234 q 163 214 163 183 q 163 159 149 143 q 135 127 104 116 q 87 110 82 104 q 77 98 77 88 q 77 58 106 35 q 135 12 177 12 q 241 12 269 57 q 297 103 297 208 z"},"V":{"x_min":0,"x_max":633,"ha":633,"o":"m 304 -9 l 84 597 q 68 643 49 658 q 30 674 -3 674 l -19 674 l -19 701 l 259 701 l 259 674 l 228 674 q 196 674 183 667 q 171 660 171 643 q 171 638 173 628 q 175 619 179 608 l 352 119 l 496 528 q 503 549 508 572 q 512 595 512 613 q 512 646 496 660 q 480 674 444 674 l 428 674 l 428 701 l 672 701 l 672 674 l 667 674 q 621 674 592 646 q 563 617 535 539 l 338 -9 z"},"\"":{"x_min":0,"x_max":335,"ha":335,"o":"m 257 420 l 240 420 l 206 644 q 206 647 205 651 q 205 655 205 662 q 205 687 216 700 q 227 714 248 714 q 269 714 280 701 q 292 688 292 664 q 292 656 292 652 q 292 648 291 644 z m 95 420 l 78 420 l 44 644 q 43 652 42 657 q 42 661 42 664 q 42 688 54 701 q 65 714 86 714 q 107 714 119 700 q 130 687 130 662 q 130 654 130 651 q 129 647 129 644 z"},"7":{"x_min":0,"x_max":505,"ha":505,"o":"m 53 514 l 74 697 l 471 697 q 463 617 379 479 q 364 453 356 440 q 300 346 278 275 q 255 203 255 128 q 255 110 256 85 q 258 59 258 52 q 258 23 244 7 q 230 -9 205 -9 q 174 -9 156 19 q 139 46 139 95 q 139 155 170 224 q 200 294 261 373 q 273 388 295 417 q 401 553 415 606 l 195 606 q 132 606 109 587 q 86 567 80 514 z"},"S":{"x_min":0,"x_max":584,"ha":584,"o":"m 62 0 l 62 287 l 87 287 q 112 158 176 87 q 241 17 333 17 q 394 17 433 54 q 472 90 472 147 q 472 201 443 237 q 413 272 351 295 q 335 301 305 312 q 167 360 129 390 q 92 419 75 454 q 57 489 57 532 q 57 615 114 666 q 171 717 263 717 q 333 717 410 661 q 431 645 437 645 q 442 645 449 652 q 456 659 464 674 l 481 701 l 506 701 l 506 462 l 481 462 q 456 567 395 627 q 335 687 256 687 q 198 687 163 655 q 128 622 128 567 q 128 517 158 487 q 189 458 281 427 q 291 424 312 417 q 435 378 481 339 q 517 310 534 273 q 552 236 552 190 q 552 102 489 43 q 426 -16 331 -16 q 296 -16 262 -6 q 227 5 196 25 q 180 35 158 53 q 136 71 129 71 q 121 71 112 61 q 103 51 98 37 l 87 0 z"},"}":{"x_min":0,"x_max":500,"ha":500,"o":"m 86 740 l 91 740 q 198 740 239 704 q 279 668 279 571 l 279 470 q 279 392 307 362 q 335 333 414 326 l 414 295 q 335 289 307 259 q 279 229 279 151 l 279 50 q 279 -47 239 -83 q 198 -119 91 -119 l 86 -119 l 86 -93 q 153 -92 177 -67 q 201 -41 201 35 l 201 104 q 201 215 230 255 q 258 294 336 310 q 259 326 230 365 q 201 405 201 516 l 201 585 q 201 662 177 688 q 152 713 86 714 z"},"Z":{"x_min":0,"x_max":668,"ha":668,"o":"m 54 0 l 54 31 l 478 673 l 382 673 q 240 673 173 622 q 106 571 96 456 l 71 456 l 77 701 l 584 701 l 584 673 l 158 31 l 281 31 q 431 31 490 86 q 550 142 569 289 l 598 289 l 586 0 z"},"x":{"x_min":0,"x_max":559,"ha":559,"o":"m 5 0 l 5 30 q 69 30 127 97 l 131 101 l 247 235 l 103 410 q 77 441 56 453 q 34 465 5 465 l 5 493 l 246 493 l 246 465 l 235 465 q 210 465 200 460 q 190 455 190 444 q 190 439 193 434 q 196 428 204 418 l 304 295 l 391 400 q 400 411 405 420 q 410 430 410 438 q 410 453 399 459 q 387 465 360 465 l 342 465 l 342 493 l 547 493 l 547 465 q 516 465 492 452 q 468 440 438 406 l 323 274 l 486 73 q 504 50 523 40 q 542 30 567 30 l 571 30 l 571 0 l 321 0 l 321 30 l 344 30 q 365 30 375 35 q 384 41 384 52 q 384 58 381 65 q 378 71 372 79 l 266 212 l 182 110 q 168 94 162 82 q 156 69 156 58 q 156 44 166 37 q 176 30 196 30 l 217 30 l 217 0 z"},")":{"x_min":0,"x_max":367,"ha":367,"o":"m 41 718 q 160 634 222 516 q 284 397 284 254 q 284 111 222 -8 q 160 -126 41 -210 l 41 -179 q 116 -103 151 0 q 185 102 185 254 q 185 406 151 508 q 116 610 41 687 z"},"&":{"x_min":0,"x_max":667,"ha":667,"o":"m 309 452 q 358 476 385 512 q 413 548 413 590 q 413 628 392 654 q 372 679 341 679 q 310 679 290 656 q 271 633 271 596 q 271 565 281 527 q 291 490 309 452 z m 387 92 q 341 163 303 236 q 265 309 234 383 q 174 356 143 316 q 112 276 112 224 q 112 148 158 95 q 205 43 273 43 q 304 43 333 55 q 361 67 387 92 z m 404 68 q 357 28 311 9 q 265 -11 217 -11 q 134 -11 78 47 q 22 105 22 188 q 22 257 70 311 q 119 365 223 411 q 208 455 201 488 q 194 520 194 547 q 194 618 235 662 q 276 706 342 706 q 394 706 428 674 q 462 643 462 595 q 462 547 428 506 q 395 465 322 425 q 346 366 379 300 q 413 234 455 165 q 484 200 501 238 q 518 276 518 307 q 518 334 503 346 q 487 359 455 359 l 451 359 l 451 389 l 666 389 l 666 359 l 664 359 q 601 359 543 253 q 504 182 473 140 q 499 91 529 65 q 558 40 589 40 q 605 40 620 47 q 634 53 649 67 l 666 50 q 635 16 603 -1 q 572 -17 537 -17 q 503 -17 469 4 q 436 26 404 68 z"},"_":{"x_min":0,"x_max":500,"ha":500,"o":"m 0 -166 l 500 -166 l 500 -236 l 0 -236 z"},"v":{"x_min":0,"x_max":472,"ha":472,"o":"m 225 -7 l 59 407 q 45 440 29 453 q 12 465 -19 465 l -28 465 l -28 493 l 218 493 l 218 465 l 191 465 q 169 465 160 458 q 150 452 150 438 q 150 429 152 418 q 155 407 159 396 l 269 110 l 358 372 q 362 385 365 398 q 367 412 367 422 q 367 443 352 454 q 337 465 308 465 l 300 465 l 300 493 l 489 493 l 489 465 q 452 463 431 444 q 410 425 393 377 l 256 -7 z"},"O":{"x_min":0,"x_max":678,"ha":678,"o":"m 532 352 q 532 517 482 603 q 433 690 339 690 q 245 690 196 603 q 146 517 146 352 q 146 188 196 102 q 245 15 339 15 q 433 15 482 102 q 532 188 532 352 z m 339 718 q 472 718 558 615 q 644 513 644 351 q 644 189 558 86 q 472 -16 339 -16 q 206 -16 121 86 q 35 188 35 351 q 35 514 121 616 q 207 718 339 718 z"},"(":{"x_min":0,"x_max":367,"ha":367,"o":"m 325 718 l 325 687 q 250 611 216 509 q 182 407 182 254 q 182 101 216 -1 q 250 -104 325 -179 l 325 -210 q 206 -126 145 -8 q 83 110 83 254 q 83 398 145 516 q 206 634 325 718 z"},"C":{"x_min":0,"x_max":639,"ha":639,"o":"m 577 268 q 570 138 503 61 q 437 -15 332 -15 q 204 -15 120 88 q 35 191 35 351 q 35 505 118 611 q 202 718 318 718 q 377 718 433 685 q 489 653 491 653 q 496 653 501 656 q 506 660 511 666 l 538 704 l 560 704 l 564 438 l 540 438 q 507 563 455 625 q 403 687 329 687 q 237 687 192 604 q 146 521 146 353 q 146 188 195 106 q 244 24 341 24 q 428 24 484 89 q 540 155 547 268 z"},"W":{"x_min":0,"x_max":895,"ha":895,"o":"m 263 -7 l 83 580 q 66 634 44 653 q 22 671 -24 673 l -24 701 l 244 701 l 244 673 q 198 672 181 663 q 164 653 164 631 q 164 625 165 618 q 167 612 169 603 l 311 135 l 434 550 l 417 606 q 407 641 385 657 q 363 673 327 673 l 323 673 l 323 701 l 598 701 l 598 673 q 544 672 524 661 q 505 650 505 623 q 505 615 507 604 q 509 594 512 585 l 653 131 l 770 531 q 777 554 781 575 q 784 597 784 613 q 784 642 765 657 q 747 673 711 673 l 702 673 l 702 701 l 935 701 l 935 673 q 886 671 859 646 q 831 620 812 557 l 645 -7 l 603 -7 l 450 489 l 302 -7 z"},"A":{"x_min":0,"x_max":674,"ha":674,"o":"m -23 0 l -23 30 l -16 30 q 33 30 66 60 q 99 89 123 156 l 320 701 l 376 701 l 591 101 q 606 56 624 43 q 642 30 678 30 l 700 30 l 700 0 l 407 0 l 407 30 l 428 30 q 475 30 487 36 q 499 42 499 60 q 499 64 498 71 q 496 77 493 86 l 447 218 l 178 218 l 149 141 q 145 128 142 114 q 139 99 139 84 q 139 58 159 44 q 180 30 219 30 l 223 30 l 223 0 z m 191 254 l 433 254 l 314 598 z"},"f":{"x_min":0,"x_max":306,"ha":306,"o":"m 191 95 q 191 49 204 40 q 217 30 266 30 l 279 30 l 279 0 l 26 0 l 26 30 l 35 30 q 77 30 89 40 q 101 50 101 95 l 101 465 l 26 465 l 26 493 l 101 493 l 101 506 q 101 608 135 662 q 169 717 232 717 q 271 717 298 693 q 325 669 325 635 q 325 613 312 598 q 298 584 277 584 q 255 584 241 597 q 227 610 227 630 q 227 646 240 660 q 252 674 252 678 q 252 683 246 687 q 240 690 231 690 q 208 690 196 676 q 183 662 183 636 q 183 631 187 583 q 190 536 191 493 l 281 493 l 281 465 l 191 465 z"},"Q":{"x_min":0,"x_max":678,"ha":678,"o":"m 393 23 q 379 68 360 90 q 340 113 316 113 q 293 113 279 95 q 264 78 264 50 q 264 46 264 43 q 265 39 266 30 q 281 21 299 17 q 316 13 338 13 q 353 13 366 16 q 380 18 393 23 z m 453 58 q 492 100 512 174 q 532 248 532 352 q 532 517 483 603 q 433 690 339 690 q 245 690 196 603 q 146 517 146 352 q 146 241 169 165 q 191 89 237 49 q 236 53 236 57 q 236 61 236 67 q 236 106 260 131 q 283 155 322 155 q 360 155 393 131 q 425 107 453 58 z m 601 27 l 626 27 q 618 -42 591 -77 q 564 -112 520 -112 q 479 -112 451 -88 q 424 -63 403 -7 q 389 -12 373 -14 q 358 -16 339 -16 q 207 -16 121 86 q 35 188 35 351 q 35 513 121 615 q 207 718 339 718 q 472 718 558 615 q 644 513 644 351 q 644 236 601 151 q 558 66 476 19 q 489 -4 506 -16 q 522 -28 543 -28 q 566 -28 581 -14 q 595 0 601 27 z"},"w":{"x_min":0,"x_max":726,"ha":726,"o":"m 216 -7 l 58 398 q 43 437 25 451 q 8 465 -24 465 l -28 465 l -28 493 l 205 493 l 205 465 q 171 465 157 458 q 143 451 143 435 q 143 427 145 418 q 147 409 150 401 l 253 126 l 338 392 q 324 437 308 451 q 292 465 260 465 l 238 465 l 238 493 l 493 493 l 493 465 l 468 465 q 441 465 429 457 q 417 449 417 431 q 417 424 419 414 q 421 404 426 392 l 526 117 l 622 375 q 627 388 629 401 q 632 413 632 423 q 632 444 617 455 q 602 465 571 465 l 562 465 l 562 493 l 756 493 l 756 465 q 720 463 697 444 q 674 424 658 381 l 510 -7 l 482 -7 l 353 346 l 242 -7 z"},"-":{"x_min":0,"x_max":303,"ha":303,"o":"m 20 216 l 20 298 l 284 298 l 284 216 z"},"E":{"x_min":0,"x_max":647,"ha":647,"o":"m 18 0 l 18 30 l 57 30 q 92 30 104 43 q 115 56 115 100 l 115 604 q 115 649 104 661 q 92 674 57 674 l 18 674 l 18 701 l 584 701 l 591 488 l 565 488 q 551 592 502 633 q 454 674 340 674 q 242 674 224 657 q 207 641 207 575 l 207 386 l 274 386 q 350 386 379 416 q 407 446 407 526 l 435 526 l 435 214 l 407 214 q 407 295 378 325 q 350 356 274 356 l 207 356 l 207 117 q 207 62 224 46 q 241 30 324 30 l 337 30 q 449 30 499 75 q 549 121 562 233 l 587 233 l 583 0 z"},"s":{"x_min":0,"x_max":463,"ha":463,"o":"m 366 493 l 389 493 l 392 324 l 368 324 q 347 393 303 435 q 258 476 207 476 q 170 476 147 454 q 124 433 124 398 q 124 341 249 303 q 264 299 273 296 q 351 272 386 235 q 421 197 421 138 q 421 77 375 35 q 330 -8 261 -8 q 199 -8 131 41 q 113 54 109 54 q 101 54 94 40 q 87 26 81 0 l 58 0 l 63 210 l 89 210 q 100 125 147 74 q 195 23 261 23 q 305 23 331 46 q 358 69 358 106 q 358 141 333 162 q 309 183 231 206 q 133 236 95 271 q 57 306 57 362 q 57 422 100 463 q 143 504 207 504 q 254 504 297 479 q 339 454 340 454 q 347 454 354 465 q 361 475 366 493 z"},">":{"x_min":0,"x_max":833,"ha":833,"o":"m 129 566 l 704 330 l 704 267 l 129 31 l 129 106 l 603 298 l 129 491 z"},"l":{"x_min":0,"x_max":273,"ha":273,"o":"m 42 30 q 75 30 85 40 q 94 49 94 83 l 94 624 q 94 652 84 662 q 75 671 42 671 l 15 671 l 15 701 q 56 701 98 702 q 140 704 184 706 l 184 83 q 184 48 193 39 q 203 30 235 30 l 263 30 l 263 0 l 15 0 l 15 30 z"},"8":{"x_min":0,"x_max":505,"ha":505,"o":"m 309 404 q 358 426 386 464 q 413 502 413 549 q 413 604 370 642 q 326 679 261 679 q 204 679 167 647 q 130 615 130 566 q 130 518 169 482 q 208 445 309 404 z m 190 347 q 139 322 114 280 q 88 238 88 181 q 88 109 132 64 q 177 19 248 19 q 314 19 358 59 q 402 99 402 158 q 402 211 363 249 q 324 287 190 347 z m 164 362 q 108 396 82 437 q 56 477 56 528 q 56 606 112 656 q 168 705 258 705 q 348 705 403 661 q 459 618 459 548 q 459 498 428 457 q 397 417 338 389 q 410 348 444 301 q 478 253 478 194 q 478 105 413 48 q 348 -9 244 -9 q 155 -9 94 48 q 33 105 33 186 q 33 241 66 285 q 99 329 164 362 z"},"\\":{"x_min":0,"x_max":278,"ha":278,"o":"m 332 -93 l 283 -93 l -24 718 l 25 718 z"},"e":{"x_min":0,"x_max":495,"ha":495,"o":"m 143 275 l 364 275 l 364 295 q 364 381 335 428 q 306 475 252 475 q 199 475 171 426 q 143 377 143 284 z m 465 162 q 451 82 397 35 q 343 -12 266 -12 q 162 -12 98 58 q 35 128 35 246 q 35 359 97 432 q 159 505 253 505 q 348 505 407 435 q 466 365 468 248 l 143 248 l 143 244 q 143 136 179 82 q 215 28 287 28 q 342 28 382 63 q 422 99 438 162 z"},"b":{"x_min":0,"x_max":532,"ha":532,"o":"m 171 295 l 171 189 q 171 112 201 68 q 231 23 281 23 q 334 23 360 75 q 386 127 386 236 q 386 356 362 409 q 337 462 282 462 q 232 462 202 417 q 171 371 171 295 z m 81 624 q 81 652 71 662 q 62 671 29 671 l 2 671 l 2 701 q 42 701 84 702 q 125 704 171 706 l 171 419 q 195 460 230 481 q 266 503 309 503 q 389 503 442 429 q 496 356 496 244 q 496 135 437 63 q 377 -9 288 -9 q 245 -9 207 10 q 169 28 136 66 l 109 0 l 81 0 z"},"%":{"x_min":0,"x_max":794,"ha":794,"o":"m 241 0 l 513 697 l 555 697 l 284 0 z m 167 684 q 127 684 111 644 q 95 603 95 491 q 95 354 111 312 q 126 270 167 270 q 208 270 223 312 q 239 354 239 477 q 239 599 223 642 q 207 684 167 684 z m 310 476 q 310 370 271 309 q 232 247 166 247 q 101 247 62 309 q 23 371 23 476 q 23 583 62 644 q 101 706 166 706 q 231 706 271 644 q 310 582 310 476 z m 771 220 q 771 114 732 53 q 693 -9 627 -9 q 562 -9 523 53 q 484 114 484 220 q 484 326 523 388 q 562 450 627 450 q 693 450 732 388 q 771 326 771 220 z m 628 428 q 588 428 572 387 q 555 345 555 234 q 555 99 571 57 q 587 14 628 14 q 668 14 684 56 q 700 99 700 221 q 700 343 684 386 q 668 428 628 428 z"},"m":{"x_min":0,"x_max":808,"ha":808,"o":"m 361 350 q 361 405 345 429 q 330 454 295 454 q 246 454 219 414 q 193 374 193 299 l 193 83 q 193 49 203 39 q 212 30 245 30 l 259 30 l 259 0 l 24 0 l 24 30 l 51 30 q 84 30 94 40 q 103 49 103 83 l 103 416 q 103 444 93 454 q 83 463 51 463 l 24 463 l 24 493 q 64 493 106 494 q 147 496 193 498 l 193 417 q 218 458 253 479 q 289 500 332 500 q 375 500 405 476 q 434 451 447 404 q 473 451 511 475 q 549 500 595 500 q 658 500 686 458 q 714 417 714 320 l 714 83 q 714 49 724 39 q 733 30 766 30 l 790 30 l 790 0 l 557 0 l 557 30 l 572 30 q 605 30 615 40 q 624 49 624 83 l 624 350 q 624 405 608 429 q 592 454 557 454 q 512 454 481 411 q 451 368 451 301 l 451 83 q 451 49 461 39 q 470 30 503 30 l 520 30 l 520 0 l 297 0 l 297 30 l 309 30 q 342 30 352 40 q 361 49 361 83 z"},"#":{"x_min":0,"x_max":769,"ha":769,"o":"m 343 422 l 295 287 l 433 287 l 480 422 z m 371 712 l 447 712 l 368 490 l 503 490 l 582 712 l 658 712 l 579 490 l 726 490 l 702 422 l 555 422 l 508 287 l 664 287 l 640 219 l 484 219 l 405 -2 l 329 -2 l 408 219 l 272 219 l 193 -2 l 118 -2 l 196 219 l 43 219 l 68 287 l 220 287 l 268 422 l 104 422 l 129 490 l 292 490 z"},",":{"x_min":0,"x_max":252,"ha":252,"o":"m 79 -147 q 110 -108 128 -74 q 146 -39 146 -19 q 146 -10 143 -7 q 139 -4 130 -4 q 127 -4 122 -4 q 116 -5 114 -5 q 94 -5 78 11 q 63 28 63 50 q 63 74 81 92 q 98 110 121 110 q 153 110 174 84 q 195 59 195 18 q 195 -17 173 -60 q 150 -103 101 -162 z"},"n":{"x_min":0,"x_max":560,"ha":560,"o":"m 24 0 l 24 30 l 51 30 q 84 30 94 40 q 103 49 103 83 l 103 416 q 103 444 93 454 q 83 463 51 463 l 24 463 l 24 493 q 64 493 106 494 q 147 496 193 498 l 193 417 q 217 457 255 479 q 292 502 335 502 q 405 502 436 461 q 466 420 466 320 l 466 83 q 466 50 475 40 q 484 30 522 30 l 543 30 l 543 0 l 303 0 l 303 30 l 324 30 q 357 30 366 40 q 376 49 376 83 l 376 350 q 376 406 359 432 q 341 457 303 457 q 250 457 221 416 q 193 375 193 299 l 193 83 q 193 49 203 39 q 212 30 245 30 l 266 30 l 266 0 z"},"h":{"x_min":0,"x_max":551,"ha":551,"o":"m 15 0 l 15 30 l 42 30 q 75 30 85 40 q 94 49 94 83 l 94 624 q 94 652 84 662 q 75 671 42 671 l 15 671 l 15 701 q 56 701 98 702 q 140 704 184 706 l 184 417 q 208 457 245 479 q 283 502 325 502 q 396 502 426 460 q 457 419 457 320 l 457 83 q 457 49 467 39 q 476 30 509 30 l 534 30 l 534 0 l 294 0 l 294 30 l 315 30 q 348 30 357 39 q 366 49 366 83 l 366 350 q 366 407 349 432 q 332 457 294 457 q 241 457 213 416 q 184 375 184 299 l 184 83 q 184 48 193 39 q 203 30 235 30 l 257 30 l 257 0 z"},"z":{"x_min":0,"x_max":487,"ha":487,"o":"m 32 0 l 32 22 l 342 465 l 254 465 q 181 465 141 431 q 101 396 81 318 l 55 318 l 62 493 l 442 493 l 442 463 l 139 29 l 241 29 q 322 29 366 74 q 410 119 417 207 l 446 207 l 442 0 z"},"B":{"x_min":0,"x_max":648,"ha":648,"o":"m 207 353 l 207 105 q 207 56 222 43 q 237 30 302 30 q 402 30 448 69 q 495 108 495 192 q 495 274 450 314 q 404 353 309 353 z m 207 384 l 282 384 q 387 384 433 418 q 479 452 479 529 q 479 607 437 641 q 395 674 287 674 q 236 674 221 661 q 207 647 207 595 z m 18 0 l 18 30 l 57 30 q 93 30 104 42 q 115 55 115 100 l 115 604 q 115 649 104 661 q 92 674 57 674 l 18 674 l 18 701 l 338 701 q 456 701 520 658 q 585 615 585 538 q 585 476 539 432 q 493 388 407 369 q 500 356 552 308 q 604 260 604 187 q 604 96 524 48 q 444 0 293 0 z"},"K":{"x_min":0,"x_max":687,"ha":687,"o":"m 207 100 q 207 55 219 42 q 230 30 265 30 l 305 30 l 305 0 l 18 0 l 18 30 l 57 30 q 92 30 104 43 q 115 56 115 100 l 115 604 q 115 649 104 661 q 92 674 57 674 l 18 674 l 18 701 l 305 701 l 305 674 l 265 674 q 230 674 219 661 q 207 648 207 604 l 207 328 l 437 557 q 462 583 474 602 q 486 621 486 634 q 486 653 471 663 q 457 673 428 673 l 405 673 l 405 701 l 679 701 l 679 673 q 632 672 590 650 q 547 628 498 578 l 358 435 l 559 120 q 591 69 621 50 q 651 30 695 30 l 711 30 l 711 0 l 404 0 l 404 30 l 431 30 q 458 30 472 37 q 485 44 485 59 q 485 66 482 74 q 479 82 469 98 l 294 373 l 207 287 z"},"R":{"x_min":0,"x_max":683,"ha":683,"o":"m 207 387 l 306 387 q 396 387 438 423 q 480 459 480 535 q 480 609 438 641 q 397 674 301 674 q 238 674 223 661 q 207 647 207 582 z m 207 100 q 207 55 219 42 q 230 30 265 30 l 305 30 l 305 0 l 18 0 l 18 30 l 57 30 q 92 30 104 43 q 115 56 115 100 l 115 604 q 115 649 104 661 q 92 674 57 674 l 18 674 l 18 701 l 315 701 q 453 701 523 661 q 593 621 593 542 q 593 476 539 430 q 485 384 389 370 q 453 355 483 323 q 514 290 527 220 q 531 195 536 150 q 544 54 583 54 q 607 54 621 80 q 635 105 640 157 l 669 157 q 669 79 638 34 q 606 -11 553 -11 q 496 -11 466 41 q 436 93 427 205 q 419 307 393 332 q 367 357 299 357 l 207 357 z"},"T":{"x_min":0,"x_max":641,"ha":641,"o":"m 163 0 l 163 30 l 203 30 q 249 30 261 42 q 274 53 274 100 l 274 590 q 274 635 261 653 q 248 672 216 672 q 139 672 94 610 q 48 548 43 434 l 19 434 l 26 701 l 615 701 l 622 434 l 598 434 q 593 548 548 610 q 502 672 425 672 q 394 672 380 653 q 367 635 367 590 l 367 100 q 367 54 380 42 q 393 30 440 30 l 478 30 l 478 0 z"},"P":{"x_min":0,"x_max":602,"ha":602,"o":"m 207 100 q 207 54 220 42 q 232 30 282 30 l 313 30 l 313 0 l 18 0 l 18 30 l 57 30 q 92 30 104 43 q 115 56 115 100 l 115 604 q 115 649 104 661 q 92 674 57 674 l 18 674 l 18 701 l 333 701 q 454 701 519 654 q 584 607 584 521 q 584 427 516 379 q 449 332 315 332 l 207 332 z m 207 362 l 300 362 q 388 362 431 400 q 473 438 473 516 q 473 601 433 637 q 393 674 298 674 q 235 674 221 662 q 207 649 207 599 z"},"|":{"x_min":0,"x_max":500,"ha":500,"o":"m 214 764 l 287 764 l 287 -236 l 214 -236 z"},"t":{"x_min":0,"x_max":339,"ha":339,"o":"m 295 147 l 295 115 q 295 54 269 23 q 243 -9 193 -9 q 138 -9 115 29 q 92 67 92 170 l 92 465 l 14 465 l 14 493 q 81 495 116 548 q 152 601 157 706 l 182 706 l 182 493 l 298 493 l 298 465 l 182 465 l 182 147 q 182 80 191 60 q 200 40 222 40 q 244 40 255 61 q 266 82 266 126 q 266 126 266 129 q 265 138 265 147 z"},"M":{"x_min":0,"x_max":801,"ha":801,"o":"m 15 0 l 15 30 q 70 30 91 57 q 111 85 111 169 l 111 589 q 111 645 97 659 q 83 674 37 674 l 15 674 l 15 701 l 225 701 l 396 143 l 570 701 l 780 701 l 780 674 l 740 674 q 705 674 694 661 q 682 648 682 604 l 682 100 q 682 55 693 42 q 705 30 740 30 l 780 30 l 780 0 l 493 0 l 493 30 l 532 30 q 567 30 578 43 q 590 56 590 100 l 590 659 l 380 -9 l 350 -9 l 144 674 l 144 167 q 144 79 163 54 q 182 30 235 30 l 238 30 l 238 0 z"},"g":{"x_min":0,"x_max":510,"ha":510,"o":"m 254 476 q 209 476 188 442 q 168 408 168 333 q 168 247 188 211 q 208 176 254 176 q 300 176 320 211 q 341 247 341 326 q 341 405 320 441 q 300 476 254 476 z m 150 -24 q 121 -40 107 -57 q 93 -74 93 -96 q 93 -137 142 -165 q 190 -192 267 -192 q 336 -192 380 -164 q 425 -136 425 -95 q 425 -36 273 -31 q 197 -28 150 -24 z m 142 177 q 102 205 80 243 q 59 281 59 326 q 59 400 116 452 q 173 505 255 505 q 286 505 315 497 q 344 489 367 474 q 391 511 419 530 q 447 548 480 548 q 512 548 535 526 q 557 505 557 475 q 557 452 543 438 q 530 423 509 423 q 489 423 475 435 q 462 448 462 466 q 462 471 463 481 q 465 490 465 494 q 465 500 459 505 q 454 510 446 510 q 433 510 417 496 q 402 483 389 458 q 419 431 435 398 q 450 365 450 326 q 450 251 393 199 q 335 147 251 147 q 233 147 215 150 q 197 153 175 160 q 147 152 131 136 q 115 120 115 101 q 115 79 134 69 q 153 58 192 58 q 197 58 228 59 q 258 59 283 59 q 382 59 433 28 q 484 -3 484 -64 q 484 -134 419 -177 q 354 -220 246 -220 q 147 -220 90 -190 q 32 -159 32 -108 q 32 -77 54 -53 q 76 -30 118 -15 q 84 -2 64 21 q 45 44 45 73 q 45 104 69 130 q 94 156 142 177 z"},"j":{"x_min":0,"x_max":271,"ha":271,"o":"m 69 642 q 69 668 88 687 q 106 706 134 706 q 161 706 180 688 q 198 669 198 642 q 198 616 179 596 q 160 577 134 577 q 108 577 88 596 q 69 616 69 642 z m 92 416 q 92 444 82 454 q 73 463 40 463 l 13 463 l 13 493 q 54 493 96 494 q 138 496 182 498 l 182 -11 q 182 -118 153 -169 q 124 -220 64 -220 q 21 -220 -6 -198 q -34 -175 -34 -143 q -34 -122 -21 -109 q -9 -95 11 -95 q 28 -95 39 -105 q 50 -116 50 -131 q 50 -142 42 -155 q 33 -167 33 -168 q 33 -180 39 -186 q 44 -192 55 -192 q 76 -192 84 -164 q 92 -136 92 -52 z"},"i":{"x_min":0,"x_max":285,"ha":285,"o":"m 195 498 l 195 83 q 195 49 205 39 q 214 30 247 30 l 275 30 l 275 0 l 26 0 l 26 30 l 53 30 q 86 30 95 40 q 105 49 105 83 l 105 416 q 105 444 95 454 q 85 463 53 463 l 26 463 l 26 493 q 66 493 108 494 q 149 496 195 498 z m 147 706 q 174 706 193 688 q 212 669 212 642 q 212 616 193 596 q 173 577 147 577 q 121 577 101 596 q 82 616 82 642 q 82 668 101 687 q 120 706 147 706 z"},"y":{"x_min":0,"x_max":502,"ha":502,"o":"m 255 -3 l 75 403 l 74 405 q 47 465 1 465 l -5 465 l -5 493 l 237 493 l 237 465 l 203 465 q 181 465 173 460 q 164 455 164 442 q 164 434 171 416 q 174 408 176 404 l 296 112 l 382 352 q 388 370 392 386 q 395 403 395 413 q 395 442 380 453 q 366 465 329 465 l 323 465 l 323 493 l 521 493 l 521 465 l 518 465 q 484 465 465 448 q 445 432 428 385 l 279 -17 q 239 -126 197 -173 q 154 -220 98 -220 q 55 -220 25 -193 q -5 -165 -5 -126 q -5 -96 15 -74 q 35 -53 62 -53 q 90 -53 109 -71 q 129 -89 129 -114 q 129 -141 104 -156 q 79 -171 79 -175 q 79 -181 86 -185 q 93 -189 104 -189 q 147 -189 183 -145 q 219 -101 255 -3 z"},"@":{"x_min":0,"x_max":986,"ha":986,"o":"m 579 162 q 549 111 512 86 q 475 61 429 61 q 366 61 329 106 q 291 151 291 226 q 291 279 315 332 q 339 384 384 427 q 417 458 455 475 q 493 492 531 492 q 575 492 602 469 q 629 445 639 399 l 664 484 l 741 484 l 657 185 q 657 184 655 179 q 648 152 648 137 q 648 112 659 99 q 671 85 692 85 q 708 85 731 95 q 754 104 775 120 q 833 164 863 232 q 892 299 892 387 q 892 452 866 507 q 841 562 790 605 q 746 643 686 663 q 625 683 555 683 q 467 683 391 653 q 315 623 257 565 q 195 504 164 425 q 133 345 133 250 q 133 161 161 97 q 188 33 248 -17 q 301 -62 372 -86 q 443 -110 522 -110 q 605 -110 682 -85 q 758 -60 828 -9 l 844 -29 q 772 -83 692 -110 q 611 -137 523 -137 q 431 -137 354 -115 q 278 -93 220 -49 q 146 6 108 86 q 69 166 69 262 q 69 361 111 448 q 153 535 234 601 q 299 655 378 683 q 456 710 545 710 q 714 710 816 618 q 918 526 918 374 q 918 296 889 229 q 861 161 808 113 q 779 87 747 74 q 714 60 681 60 q 634 60 608 86 q 583 112 579 162 z m 539 469 q 513 469 491 454 q 469 439 447 406 q 412 354 392 292 q 371 230 371 180 q 371 138 390 113 q 410 87 440 87 q 472 87 500 108 q 528 129 554 173 q 581 218 597 272 q 614 327 614 369 q 614 414 593 442 q 573 469 539 469 z"},".":{"x_min":0,"x_max":252,"ha":252,"o":"m 67 48 q 67 73 84 90 q 101 108 126 108 q 150 108 167 90 q 185 73 185 48 q 185 24 167 6 q 150 -11 126 -11 q 102 -11 84 6 q 67 24 67 48 z"},"p":{"x_min":0,"x_max":545,"ha":545,"o":"m 179 299 l 179 193 q 179 118 211 74 q 242 31 295 31 q 347 31 370 83 q 394 135 394 248 q 394 359 370 411 q 346 463 294 463 q 241 463 210 419 q 179 375 179 299 z m 179 -127 q 179 -164 188 -171 q 196 -178 226 -178 l 258 -178 l 258 -209 l 10 -209 l 10 -178 l 41 -178 q 74 -178 81 -170 q 89 -162 89 -127 l 89 416 q 89 446 79 454 q 69 463 27 464 l 10 464 l 10 493 q 51 493 93 494 q 135 496 179 498 l 179 417 q 205 458 242 480 q 280 502 324 502 q 405 502 454 433 q 504 365 504 251 q 504 138 450 63 q 397 -11 317 -11 q 274 -11 238 10 q 203 32 179 73 z"},"X":{"x_min":0,"x_max":671,"ha":671,"o":"m -3 0 l -3 30 q 41 30 70 46 q 99 62 139 117 l 299 341 l 128 602 q 101 644 76 658 q 52 673 12 673 l 12 701 l 300 701 l 300 673 l 280 673 q 253 673 241 665 q 228 658 228 642 q 228 633 233 621 q 238 609 249 592 l 360 427 l 463 575 q 474 591 480 606 q 487 622 487 632 q 487 653 470 663 q 454 672 413 673 l 413 701 l 660 701 l 660 673 q 613 671 577 650 q 542 628 508 581 l 378 399 l 566 107 q 594 63 620 47 q 646 30 682 30 l 692 30 l 692 0 l 392 0 l 392 30 l 400 30 q 436 30 453 38 q 469 45 469 62 q 469 72 465 83 q 460 94 451 108 l 317 311 l 198 144 q 181 121 175 105 q 168 89 168 74 q 168 51 185 41 q 202 30 238 30 l 238 0 z"},"*":{"x_min":0,"x_max":384,"ha":384,"o":"m 202 507 l 213 514 q 230 500 260 480 q 316 444 316 415 q 316 397 302 384 q 288 371 270 371 q 230 371 211 464 q 206 492 202 507 z m 182 507 q 178 491 172 462 q 154 371 114 371 q 96 371 82 384 q 68 397 68 415 q 68 445 125 481 q 154 501 171 514 z m 216 545 q 232 558 258 582 q 302 622 325 622 q 345 622 358 608 q 371 595 371 574 q 371 554 354 541 q 338 529 310 529 q 305 529 281 531 q 257 533 238 533 l 220 533 z m 168 545 l 164 533 l 146 533 q 127 533 103 531 q 79 529 74 529 q 46 529 30 542 q 13 554 13 574 q 13 595 26 608 q 39 622 59 622 q 82 622 126 582 q 151 558 168 545 z m 186 561 q 179 582 162 620 q 146 658 146 673 q 146 694 158 707 q 171 719 192 719 q 213 719 225 706 q 238 693 238 673 q 238 658 222 620 q 206 583 199 561 z"},"Y":{"x_min":0,"x_max":616,"ha":616,"o":"m 356 100 q 356 54 368 42 q 380 30 425 30 l 467 30 l 467 0 l 152 0 l 152 30 l 194 30 q 240 30 251 42 q 263 54 263 100 l 263 279 l 82 606 q 59 647 38 660 q 18 672 -21 674 l -21 701 l 247 701 l 247 674 q 209 674 193 665 q 176 656 176 637 q 176 628 179 617 q 183 607 192 591 l 344 319 l 467 569 q 477 589 480 602 q 484 616 484 628 q 484 651 467 662 q 450 674 416 674 l 412 674 l 412 701 l 629 701 l 629 674 l 623 674 q 585 674 561 655 q 536 636 509 582 l 356 276 z"},"c":{"x_min":0,"x_max":468,"ha":468,"o":"m 447 177 q 440 89 391 39 q 342 -12 264 -12 q 164 -12 100 60 q 35 131 35 243 q 35 357 101 431 q 167 505 267 505 q 339 505 390 462 q 440 419 440 358 q 440 323 420 301 q 400 278 371 278 q 346 278 328 296 q 310 314 310 339 q 310 363 333 385 q 356 407 356 418 q 356 440 332 459 q 309 477 276 477 q 212 477 179 421 q 146 365 146 257 q 146 143 181 83 q 217 23 284 23 q 338 23 375 65 q 413 107 419 177 z"},"!":{"x_min":0,"x_max":329,"ha":329,"o":"m 105 48 q 105 73 122 90 q 139 108 164 108 q 188 108 206 90 q 223 73 223 48 q 223 24 206 6 q 188 -11 164 -11 q 140 -11 122 6 q 105 24 105 48 z m 177 185 l 151 185 l 151 228 q 151 352 128 492 q 105 633 105 642 q 105 679 120 698 q 135 718 164 718 q 192 718 208 698 q 223 679 223 642 q 223 630 214 580 q 178 374 177 185 z"},"/":{"x_min":0,"x_max":278,"ha":278,"o":"m -54 -93 l 253 718 l 302 718 l -5 -93 z"},"[":{"x_min":0,"x_max":367,"ha":367,"o":"m 98 -197 l 98 701 l 354 701 l 354 674 l 296 674 q 229 674 209 651 q 189 629 189 560 l 189 -56 q 189 -125 208 -147 q 228 -169 296 -169 l 354 -169 l 354 -197 z"},"6":{"x_min":0,"x_max":505,"ha":505,"o":"m 148 217 q 148 119 178 68 q 208 17 266 17 q 321 17 348 61 q 375 104 375 195 q 375 319 353 369 q 330 418 276 418 q 218 418 183 364 q 148 310 148 217 z m 147 355 q 170 400 207 423 q 244 447 291 447 q 371 447 423 386 q 475 326 475 234 q 475 129 416 60 q 356 -9 269 -9 q 163 -9 103 84 q 44 176 44 344 q 44 518 108 612 q 172 706 290 706 q 366 706 417 669 q 469 632 469 581 q 469 550 453 532 q 437 514 409 514 q 383 514 368 531 q 352 547 352 575 q 352 587 361 608 q 370 630 370 637 q 370 653 345 667 q 320 681 286 681 q 209 681 178 621 q 147 562 147 400 z"},"r":{"x_min":0,"x_max":425,"ha":425,"o":"m 193 83 q 193 49 203 39 q 212 30 245 30 l 273 30 l 273 0 l 24 0 l 24 30 l 51 30 q 84 30 94 40 q 103 49 103 83 l 103 416 q 103 444 93 454 q 83 463 51 463 l 24 463 l 24 493 q 65 493 106 494 q 148 496 190 498 l 190 420 q 213 459 245 480 q 276 501 310 501 q 354 501 383 474 q 411 446 411 404 q 411 369 391 346 q 372 323 341 323 q 315 323 299 340 q 282 356 282 382 q 282 412 307 430 q 331 449 331 454 q 331 461 323 466 q 314 471 302 471 q 270 471 240 446 q 211 421 193 377 z"},"2":{"x_min":0,"x_max":505,"ha":505,"o":"m 16 0 q 23 57 54 114 q 84 170 134 217 q 160 242 204 279 q 248 315 261 330 q 304 376 323 419 q 343 463 343 511 q 343 584 303 629 q 263 675 198 675 q 151 675 116 650 q 81 625 81 594 q 81 578 90 569 q 100 560 125 552 q 157 543 172 528 q 187 512 187 488 q 187 461 168 443 q 150 425 122 425 q 83 425 57 458 q 30 492 30 541 q 30 612 85 659 q 141 706 228 706 q 323 706 386 650 q 450 595 450 514 q 450 468 433 430 q 415 393 377 358 q 348 331 281 288 q 215 245 191 228 q 148 197 115 159 q 83 121 72 90 l 327 90 q 379 90 400 107 q 420 124 434 176 l 455 176 l 434 0 z"},"{":{"x_min":0,"x_max":500,"ha":500,"o":"m 414 740 l 414 714 q 348 713 323 688 q 299 662 299 585 l 299 516 q 299 405 270 365 q 241 326 164 310 q 242 294 270 255 q 299 215 299 104 l 299 35 q 299 -42 323 -67 q 347 -92 414 -93 l 414 -119 l 409 -119 q 302 -119 262 -83 q 222 -47 222 50 l 222 151 q 222 229 193 259 q 165 289 87 295 l 87 326 q 166 333 194 362 q 222 392 222 470 l 222 571 q 222 668 262 704 q 302 740 409 740 z"},"9":{"x_min":0,"x_max":505,"ha":505,"o":"m 365 341 q 342 296 305 273 q 268 249 221 249 q 142 249 89 310 q 37 370 37 463 q 37 567 97 637 q 156 706 243 706 q 349 706 408 613 q 468 520 468 352 q 468 178 404 84 q 340 -10 222 -10 q 146 -10 94 28 q 42 65 42 117 q 42 145 59 164 q 76 182 100 182 q 128 182 144 166 q 160 150 160 121 q 160 109 151 88 q 142 67 142 59 q 142 42 167 29 q 191 16 226 16 q 303 16 334 75 q 365 134 365 294 z m 364 478 q 364 577 334 628 q 304 679 247 679 q 190 679 164 634 q 137 588 137 490 q 137 375 160 326 q 183 277 236 277 q 294 277 329 331 q 364 385 364 478 z"}," ":{"x_min":0,"x_max":252,"ha":252,"o":""},"I":{"x_min":0,"x_max":328,"ha":328,"o":"m 210 88 q 210 55 221 42 q 232 30 261 30 l 307 30 l 307 0 l 20 0 l 20 30 l 66 30 q 95 30 106 42 q 117 55 117 88 l 117 616 q 117 649 106 662 q 95 674 66 674 l 20 674 l 20 701 l 307 701 l 307 674 l 261 674 q 232 674 221 662 q 210 649 210 616 z"},"H":{"x_min":0,"x_max":714,"ha":714,"o":"m 207 100 q 207 55 219 42 q 230 30 265 30 l 305 30 l 305 0 l 18 0 l 18 30 l 57 30 q 92 30 104 43 q 115 56 115 100 l 115 604 q 115 649 104 661 q 92 674 57 674 l 18 674 l 18 701 l 305 701 l 305 674 l 265 674 q 230 674 219 661 q 207 648 207 604 l 207 418 l 506 418 l 506 604 q 506 649 495 661 q 483 674 448 674 l 409 674 l 409 701 l 696 701 l 696 674 l 657 674 q 622 674 611 661 q 599 648 599 604 l 599 100 q 599 55 610 42 q 622 30 657 30 l 696 30 l 696 0 l 409 0 l 409 30 l 448 30 q 483 30 494 43 q 506 56 506 100 l 506 379 l 207 379 z"},"4":{"x_min":0,"x_max":505,"ha":505,"o":"m 283 209 l 283 572 l 72 209 z m 166 0 l 166 28 l 214 28 q 258 28 271 42 q 283 55 283 111 l 283 165 l 31 165 l 31 196 l 324 701 l 371 701 l 371 209 l 469 209 l 469 165 l 371 165 l 371 107 q 371 52 383 40 q 396 28 436 28 l 469 28 l 469 0 z"},"~":{"x_min":0,"x_max":833,"ha":833,"o":"m 747 376 l 747 300 q 696 265 650 248 q 604 231 557 231 q 512 231 432 259 q 421 263 416 265 l 408 268 q 322 297 275 297 q 234 297 189 279 q 145 261 87 220 l 87 296 q 139 331 186 349 q 232 366 276 366 q 306 366 338 360 q 370 353 418 336 q 426 333 441 328 q 519 300 558 300 q 601 300 646 318 q 690 336 747 376 z"},"D":{"x_min":0,"x_max":674,"ha":674,"o":"m 231 119 q 231 62 244 46 q 257 30 306 30 q 438 30 494 102 q 551 174 551 345 q 551 522 496 597 q 442 671 312 671 q 258 671 245 659 q 231 646 231 603 z m 41 0 l 41 30 l 80 30 q 116 30 127 42 q 138 55 138 100 l 138 604 q 138 649 127 661 q 115 674 80 674 l 41 674 l 41 701 l 291 701 q 361 701 406 693 q 450 686 487 668 q 568 629 615 546 q 661 462 661 355 q 661 261 626 183 q 591 106 527 59 q 484 27 434 14 q 383 0 296 0 z"},"^":{"x_min":0,"x_max":1000,"ha":1000,"o":"m 452 714 l 547 714 l 797 438 l 749 438 l 499 643 l 248 438 l 201 438 z"},"0":{"x_min":0,"x_max":505,"ha":505,"o":"m 252 679 q 188 679 163 615 q 138 550 138 369 q 138 151 163 85 q 188 19 252 19 q 316 19 342 86 q 367 152 367 348 q 367 544 342 612 q 316 679 252 679 z m 469 348 q 469 183 410 87 q 351 -9 252 -9 q 153 -9 94 87 q 35 183 35 348 q 35 513 94 610 q 153 706 252 706 q 351 706 410 610 q 469 513 469 348 z"},"F":{"x_min":0,"x_max":625,"ha":625,"o":"m 593 701 l 594 471 l 565 471 q 557 583 507 629 q 458 674 338 674 q 242 674 224 657 q 207 641 207 575 l 207 386 l 268 386 q 344 386 372 416 q 400 446 400 526 l 428 526 l 428 214 l 400 214 q 400 295 372 326 q 343 356 268 356 l 207 356 l 207 100 q 207 55 219 42 q 232 30 278 30 l 319 30 l 319 0 l 18 0 l 18 30 l 57 30 q 92 30 104 43 q 115 56 115 100 l 115 604 q 115 649 104 661 q 92 674 57 674 l 18 674 l 18 701 z"},"`":{"x_min":0,"x_max":500,"ha":500,"o":"m 195 705 l 336 559 l 303 559 l 142 659 q 127 669 119 679 q 112 688 112 699 q 112 713 122 724 q 132 734 147 734 q 157 734 167 728 q 178 722 195 705 z"},"k":{"x_min":0,"x_max":552,"ha":552,"o":"m 184 258 l 328 388 q 342 401 349 413 q 356 424 356 434 q 356 450 344 457 q 332 465 307 465 l 290 465 l 290 493 l 525 493 l 525 465 l 519 465 q 456 465 376 394 l 375 393 l 297 324 l 457 85 q 479 53 498 41 q 517 30 548 30 l 556 30 l 556 0 l 302 0 l 302 30 l 334 30 q 356 30 365 34 q 373 38 373 47 q 373 50 371 54 q 370 58 363 68 l 233 266 l 184 224 l 184 83 q 184 49 194 39 q 203 30 236 30 l 257 30 l 257 0 l 15 0 l 15 30 l 42 30 q 75 30 85 40 q 94 49 94 83 l 94 624 q 94 652 84 662 q 75 671 42 671 l 15 671 l 15 701 q 56 701 98 702 q 140 704 184 706 z"},"u":{"x_min":0,"x_max":560,"ha":560,"o":"m 368 0 l 368 81 q 339 38 302 16 q 265 -5 218 -5 q 150 -5 122 34 q 94 72 94 175 l 94 416 q 94 445 85 454 q 75 463 43 463 l 22 463 l 22 493 q 63 493 104 495 q 145 496 185 499 l 185 168 q 185 87 201 64 q 217 41 256 41 q 312 41 340 86 q 368 130 368 222 l 368 416 q 368 444 358 454 q 349 463 316 463 l 294 463 l 294 493 q 335 493 376 495 q 417 496 458 499 l 458 83 q 458 49 468 39 q 478 30 510 30 l 532 30 l 532 0 q 513 0 493 1 q 474 1 442 1 q 422 1 405 1 q 387 0 368 0 z"},"]":{"x_min":0,"x_max":367,"ha":367,"o":"m 269 -197 l 13 -197 l 13 -169 l 71 -169 q 139 -169 158 -146 q 178 -124 178 -56 l 178 560 q 178 628 158 651 q 138 674 71 674 l 13 674 l 13 701 l 269 701 z"},"U":{"x_min":0,"x_max":725,"ha":725,"o":"m 113 275 l 113 604 q 113 649 102 661 q 90 674 55 674 l 16 674 l 16 701 l 303 701 l 303 674 l 263 674 q 228 674 217 661 q 205 648 205 604 l 205 269 q 205 138 250 78 q 295 19 394 19 q 485 19 529 68 q 573 118 573 221 l 573 280 l 573 539 q 573 620 554 647 q 535 674 484 674 l 478 674 l 478 701 l 703 701 l 703 674 q 646 673 626 647 q 605 621 605 534 l 605 244 q 605 170 597 135 q 589 101 571 73 q 542 30 491 7 q 439 -16 372 -16 q 298 -16 242 6 q 187 29 155 71 q 132 102 123 143 q 113 185 113 275 z"},"o":{"x_min":0,"x_max":514,"ha":514,"o":"m 257 477 q 199 477 172 423 q 146 369 146 247 q 146 125 172 71 q 199 17 257 17 q 315 17 342 71 q 368 125 368 247 q 368 369 342 423 q 315 477 257 477 z m 257 504 q 347 504 413 429 q 479 354 479 247 q 479 140 413 64 q 347 -11 257 -11 q 167 -11 101 64 q 35 140 35 247 q 35 354 101 429 q 167 504 257 504 z"},"N":{"x_min":0,"x_max":668,"ha":668,"o":"m 19 0 l 19 30 l 24 30 q 72 30 93 61 q 114 92 114 163 l 114 587 q 114 641 100 657 q 86 673 48 673 l 19 673 l 19 701 l 191 701 l 540 156 l 540 531 q 540 620 520 646 q 500 671 442 673 l 442 701 l 664 701 l 664 673 q 610 670 591 644 q 572 619 572 531 l 572 -7 l 540 -7 l 146 606 l 146 163 q 146 84 166 57 q 185 30 238 30 l 241 30 l 241 0 z"},"+":{"x_min":0,"x_max":833,"ha":833,"o":"m 382 596 l 451 596 l 451 332 l 709 332 l 709 264 l 451 264 l 451 0 l 382 0 l 382 264 l 124 264 l 124 332 l 382 332 z"},"G":{"x_min":0,"x_max":677,"ha":677,"o":"m 561 -4 l 529 56 q 525 64 521 69 q 516 74 513 74 q 508 74 494 60 q 481 46 472 39 q 440 12 401 -2 q 363 -16 321 -16 q 197 -16 116 86 q 35 188 35 349 q 35 507 120 612 q 206 717 328 717 q 409 717 485 661 q 501 649 505 649 q 510 649 515 653 q 521 657 526 666 l 550 704 l 572 704 l 579 455 l 549 455 q 519 571 465 630 q 410 689 333 689 q 242 689 196 606 q 149 523 149 362 q 149 188 194 102 q 238 15 328 15 q 407 15 447 66 q 487 116 487 216 q 487 294 472 311 q 458 328 407 328 l 382 328 l 382 355 l 674 355 l 674 328 l 649 328 q 607 328 594 313 q 581 299 581 251 l 581 -4 z"},"q":{"x_min":0,"x_max":532,"ha":532,"o":"m 362 193 l 362 296 q 362 372 331 416 q 299 461 248 461 q 196 461 172 409 q 147 356 147 245 q 147 134 171 83 q 196 32 249 32 q 301 32 331 75 q 362 118 362 193 z m 452 -127 q 452 -164 461 -171 q 469 -178 499 -178 l 531 -178 l 531 -209 l 283 -209 l 283 -178 l 315 -178 q 347 -178 354 -170 q 362 -163 362 -127 l 362 73 q 338 32 303 10 q 267 -11 224 -11 q 143 -11 90 61 q 37 133 37 248 q 37 353 93 426 q 149 499 224 499 q 270 499 306 476 q 343 454 374 406 l 433 500 l 452 500 z"},"d":{"x_min":0,"x_max":544,"ha":544,"o":"m 364 205 l 364 297 q 364 372 332 417 q 301 461 249 461 q 198 461 174 408 q 149 356 149 247 q 149 140 174 87 q 198 34 249 34 q 300 34 332 81 q 364 127 364 205 z m 364 624 q 364 652 354 662 q 345 671 312 671 l 285 671 l 285 701 q 329 701 371 702 q 413 704 454 706 l 454 77 q 454 49 464 39 q 474 30 506 30 l 533 30 l 533 0 q 490 0 448 -1 q 405 -2 364 -5 l 364 85 q 338 38 302 14 q 266 -9 219 -9 q 138 -9 88 60 q 39 128 39 242 q 39 354 93 427 q 147 501 227 501 q 269 501 305 479 q 340 458 364 417 z"},"1":{"x_min":0,"x_max":505,"ha":505,"o":"m 96 0 l 96 28 l 146 28 q 189 28 205 45 q 221 62 221 125 l 221 445 q 221 498 209 511 q 198 525 147 525 l 96 525 l 96 549 q 175 558 225 600 q 275 642 289 713 l 309 713 l 309 126 q 309 62 323 45 q 336 28 383 28 l 434 28 l 434 0 z"},"5":{"x_min":0,"x_max":505,"ha":505,"o":"m 74 333 l 86 697 l 101 697 q 132 676 171 666 q 209 656 258 656 q 347 656 416 685 q 424 688 425 688 q 429 688 431 686 q 433 685 433 681 q 433 657 357 614 q 281 572 193 572 q 173 572 153 575 q 132 578 109 583 l 103 394 q 133 426 169 441 q 205 457 248 457 q 344 457 408 392 q 471 326 471 225 q 471 127 405 59 q 338 -9 243 -9 q 160 -9 101 38 q 41 84 41 148 q 41 184 61 207 q 82 231 111 231 q 136 231 154 213 q 172 194 172 168 q 172 143 149 116 q 127 88 127 79 q 127 57 159 38 q 191 19 234 19 q 300 19 332 68 q 364 117 364 217 q 364 324 331 375 q 297 427 228 427 q 185 427 150 400 q 115 374 95 326 z"}}}
